<svg width="200" height="173" viewBox="0 0 200 173" fill="none" xmlns="http://www.w3.org/2000/svg">
<g clip-path="url(#clip0_10389_627)">
<mask id="mask0_10389_627" style="mask-type:alpha" maskUnits="userSpaceOnUse" x="0" y="0" width="200" height="174">
<path d="M199.969 0.143555V0.144531C199.969 0.14518 199.969 0.146307 199.97 0.147461C199.97 0.149908 199.97 0.153587 199.971 0.158203C199.971 0.16751 199.972 0.181313 199.973 0.199219C199.976 0.23543 199.979 0.289373 199.982 0.359375C199.989 0.499514 199.996 0.706044 199.999 0.972656C200.004 1.50624 199.989 2.28174 199.909 3.25098C199.748 5.18939 199.327 7.90559 198.287 11.0205C196.205 17.2528 191.643 25.0776 181.733 31.4629C171.838 37.8383 162.815 40.8211 156.264 42.21C152.989 42.9043 150.332 43.201 148.492 43.3232C147.572 43.3843 146.856 43.4019 146.37 43.4043C146.127 43.4055 145.941 43.4024 145.815 43.3994C145.753 43.398 145.706 43.3967 145.674 43.3955C145.658 43.3949 145.645 43.3939 145.637 43.3936H100.094V43.4043H0.0437853L0.0310899 43.2607V43.2568C0.0308788 43.2544 0.0304537 43.2505 0.0301134 43.2461C0.0293886 43.2367 0.028404 43.2229 0.0271837 43.2051C0.0247189 43.1688 0.0218506 43.1149 0.0183946 43.0449C0.0114785 42.9047 0.00326218 42.6983 0.000816501 42.4316C-0.00407433 41.8981 0.0113871 41.1225 0.0916368 40.1533C0.252217 38.2148 0.673193 35.4987 1.71371 32.3838C3.79563 26.1515 8.35743 18.3277 18.2674 11.9424C28.1622 5.56699 37.1843 2.58324 43.7352 1.19434C47.0106 0.499913 49.6686 0.204289 51.5086 0.0820312C52.4285 0.0209167 53.1444 0.00337151 53.6307 0.000976562C53.8735 -0.000218148 54.0591 0.00194214 54.1844 0.00488281C54.247 0.00635295 54.2949 0.00759464 54.327 0.00878906C54.3427 0.00936976 54.3549 0.0103787 54.3631 0.0107422H99.9071V0H199.957L199.969 0.143555Z" fill="#1E8BC3"/>
<path d="M199.969 0.143555V0.144531C199.969 0.14518 199.969 0.146307 199.97 0.147461C199.97 0.149908 199.97 0.153587 199.971 0.158203C199.971 0.16751 199.972 0.181313 199.973 0.199219C199.976 0.23543 199.979 0.289373 199.982 0.359375C199.989 0.499514 199.996 0.706044 199.999 0.972656C200.004 1.50624 199.989 2.28174 199.909 3.25098C199.748 5.18939 199.327 7.90559 198.287 11.0205C196.205 17.2528 191.643 25.0776 181.733 31.4629C171.838 37.8383 162.815 40.8211 156.264 42.21C152.989 42.9043 150.332 43.201 148.492 43.3232C147.572 43.3843 146.856 43.4019 146.37 43.4043C146.127 43.4055 145.941 43.4024 145.815 43.3994C145.753 43.398 145.706 43.3967 145.674 43.3955C145.658 43.3949 145.645 43.3939 145.637 43.3936H100.094V43.4043H0.0437853L0.0310899 43.2607V43.2568C0.0308788 43.2544 0.0304537 43.2505 0.0301134 43.2461C0.0293886 43.2367 0.028404 43.2229 0.0271837 43.2051C0.0247189 43.1688 0.0218506 43.1149 0.0183946 43.0449C0.0114785 42.9047 0.00326218 42.6983 0.000816501 42.4316C-0.00407433 41.8981 0.0113871 41.1225 0.0916368 40.1533C0.252217 38.2148 0.673193 35.4987 1.71371 32.3838C3.79563 26.1515 8.35743 18.3277 18.2674 11.9424C28.1622 5.56699 37.1843 2.58324 43.7352 1.19434C47.0106 0.499913 49.6686 0.204289 51.5086 0.0820312C52.4285 0.0209167 53.1444 0.00337151 53.6307 0.000976562C53.8735 -0.000218148 54.0591 0.00194214 54.1844 0.00488281C54.247 0.00635295 54.2949 0.00759464 54.327 0.00878906C54.3427 0.00936976 54.3549 0.0103787 54.3631 0.0107422H99.9071V0H199.957L199.969 0.143555Z" fill="url(#paint0_linear_10389_627)"/>
<path d="M199.969 43.3826V43.3836C199.969 43.3842 199.97 43.3854 199.97 43.3865C199.97 43.3889 199.97 43.3928 199.97 43.3972C199.971 43.4066 199.973 43.4204 199.974 43.4382C199.976 43.4745 199.979 43.5284 199.983 43.5984C199.99 43.7386 199.997 43.945 199.999 44.2117C200.004 44.7453 199.99 45.5208 199.91 46.49C199.749 48.4285 199.328 51.1447 198.287 54.2595C196.206 60.4918 191.644 68.3166 181.734 74.7019C171.839 81.0773 162.816 84.0601 156.265 85.449C152.99 86.1433 150.332 86.439 148.493 86.5613C147.573 86.6224 146.857 86.6399 146.37 86.6424C146.127 86.6435 145.941 86.6414 145.816 86.6384C145.754 86.637 145.706 86.6357 145.674 86.6345C145.658 86.6339 145.645 86.6329 145.637 86.6326H100.094V86.6433H0.0442743L0.031579 86.4998V86.4959C0.0313706 86.4934 0.0309609 86.4898 0.0306024 86.4851C0.0298814 86.4758 0.0289027 86.462 0.0276727 86.4441C0.0252082 86.4079 0.0213649 86.354 0.0179071 86.284C0.0109903 86.1438 0.00375553 85.9373 0.00130554 85.6707C-0.00358772 85.1371 0.0118718 84.3616 0.0921259 83.3924C0.252678 81.4539 0.673676 78.7378 1.7142 75.6228C3.79613 69.3905 8.35774 61.5658 18.2679 55.1804C28.1626 48.8051 37.1848 45.8223 43.7357 44.4334C47.0111 43.7389 49.6691 43.4423 51.5091 43.3201C52.4289 43.259 53.1449 43.2414 53.6312 43.239C53.874 43.2378 54.0596 43.241 54.1849 43.2439C54.2475 43.2454 54.2954 43.2466 54.3275 43.2478C54.3432 43.2484 54.3554 43.2494 54.3636 43.2498H99.9076V43.239H199.957L199.969 43.3826Z" fill="#1E8BC3"/>
<path d="M199.969 43.3826V43.3836C199.969 43.3842 199.97 43.3854 199.97 43.3865C199.97 43.3889 199.97 43.3928 199.97 43.3972C199.971 43.4066 199.973 43.4204 199.974 43.4382C199.976 43.4745 199.979 43.5284 199.983 43.5984C199.99 43.7386 199.997 43.945 199.999 44.2117C200.004 44.7453 199.99 45.5208 199.91 46.49C199.749 48.4285 199.328 51.1447 198.287 54.2595C196.206 60.4918 191.644 68.3166 181.734 74.7019C171.839 81.0773 162.816 84.0601 156.265 85.449C152.99 86.1433 150.332 86.439 148.493 86.5613C147.573 86.6224 146.857 86.6399 146.37 86.6424C146.127 86.6435 145.941 86.6414 145.816 86.6384C145.754 86.637 145.706 86.6357 145.674 86.6345C145.658 86.6339 145.645 86.6329 145.637 86.6326H100.094V86.6433H0.0442743L0.031579 86.4998V86.4959C0.0313706 86.4934 0.0309609 86.4898 0.0306024 86.4851C0.0298814 86.4758 0.0289027 86.462 0.0276727 86.4441C0.0252082 86.4079 0.0213649 86.354 0.0179071 86.284C0.0109903 86.1438 0.00375553 85.9373 0.00130554 85.6707C-0.00358772 85.1371 0.0118718 84.3616 0.0921259 83.3924C0.252678 81.4539 0.673676 78.7378 1.7142 75.6228C3.79613 69.3905 8.35774 61.5658 18.2679 55.1804C28.1626 48.8051 37.1848 45.8223 43.7357 44.4334C47.0111 43.7389 49.6691 43.4423 51.5091 43.3201C52.4289 43.259 53.1449 43.2414 53.6312 43.239C53.874 43.2378 54.0596 43.241 54.1849 43.2439C54.2475 43.2454 54.2954 43.2466 54.3275 43.2478C54.3432 43.2484 54.3554 43.2494 54.3636 43.2498H99.9076V43.239H199.957L199.969 43.3826Z" fill="url(#paint1_linear_10389_627)"/>
<path d="M199.969 86.6196V86.6206C199.969 86.6213 199.969 86.6224 199.97 86.6235C199.97 86.626 199.97 86.6297 199.971 86.6343C199.971 86.6436 199.972 86.6574 199.973 86.6753C199.976 86.7115 199.979 86.7654 199.982 86.8354C199.989 86.9756 199.996 87.1821 199.999 87.4487C200.004 87.9823 199.989 88.7578 199.909 89.7271C199.748 91.6655 199.327 94.3817 198.287 97.4966C196.205 103.729 191.643 111.554 181.733 117.939C171.838 124.314 162.815 127.297 156.264 128.686C152.989 129.38 150.332 129.677 148.492 129.799C147.572 129.86 146.856 129.878 146.37 129.88C146.127 129.882 145.941 129.878 145.815 129.875C145.753 129.874 145.706 129.873 145.674 129.872C145.658 129.871 145.645 129.87 145.637 129.87H100.094V129.88H0.043786L0.0310906 129.737V129.733C0.0308799 129.73 0.0304582 129.727 0.0301141 129.722C0.0293893 129.713 0.0284082 129.699 0.0271844 129.681C0.0247189 129.645 0.0218538 129.591 0.0183953 129.521C0.0114781 129.381 0.00326335 129.174 0.000817203 128.908C-0.00407588 128.374 0.0113838 127.599 0.0916375 126.629C0.252212 124.691 0.67318 121.975 1.71371 118.86C3.79564 112.628 8.35726 104.803 18.2674 98.4175C28.1621 92.0422 37.1843 89.0593 43.7352 87.6704C47.0106 86.976 49.6686 86.6804 51.5086 86.5581C52.4285 86.497 53.1444 86.4794 53.6307 86.4771C53.8735 86.4759 54.0591 86.478 54.1844 86.481C54.247 86.4824 54.2949 86.4837 54.327 86.4849C54.3427 86.4854 54.3549 86.4865 54.3631 86.4868H99.9071V86.4761H199.957L199.969 86.6196Z" fill="#1E8BC3"/>
<path d="M199.969 86.6196V86.6206C199.969 86.6213 199.969 86.6224 199.97 86.6235C199.97 86.626 199.97 86.6297 199.971 86.6343C199.971 86.6436 199.972 86.6574 199.973 86.6753C199.976 86.7115 199.979 86.7654 199.982 86.8354C199.989 86.9756 199.996 87.1821 199.999 87.4487C200.004 87.9823 199.989 88.7578 199.909 89.7271C199.748 91.6655 199.327 94.3817 198.287 97.4966C196.205 103.729 191.643 111.554 181.733 117.939C171.838 124.314 162.815 127.297 156.264 128.686C152.989 129.38 150.332 129.677 148.492 129.799C147.572 129.86 146.856 129.878 146.37 129.88C146.127 129.882 145.941 129.878 145.815 129.875C145.753 129.874 145.706 129.873 145.674 129.872C145.658 129.871 145.645 129.87 145.637 129.87H100.094V129.88H0.043786L0.0310906 129.737V129.733C0.0308799 129.73 0.0304582 129.727 0.0301141 129.722C0.0293893 129.713 0.0284082 129.699 0.0271844 129.681C0.0247189 129.645 0.0218538 129.591 0.0183953 129.521C0.0114781 129.381 0.00326335 129.174 0.000817203 128.908C-0.00407588 128.374 0.0113838 127.599 0.0916375 126.629C0.252212 124.691 0.67318 121.975 1.71371 118.86C3.79564 112.628 8.35726 104.803 18.2674 98.4175C28.1621 92.0422 37.1843 89.0593 43.7352 87.6704C47.0106 86.976 49.6686 86.6804 51.5086 86.5581C52.4285 86.497 53.1444 86.4794 53.6307 86.4771C53.8735 86.4759 54.0591 86.478 54.1844 86.481C54.247 86.4824 54.2949 86.4837 54.327 86.4849C54.3427 86.4854 54.3549 86.4865 54.3631 86.4868H99.9071V86.4761H199.957L199.969 86.6196Z" fill="url(#paint2_linear_10389_627)"/>
<path d="M199.969 129.855V129.856C199.969 129.857 199.969 129.858 199.97 129.859C199.97 129.861 199.97 129.865 199.971 129.87C199.971 129.879 199.972 129.893 199.973 129.911C199.976 129.947 199.979 130.001 199.982 130.071C199.989 130.211 199.996 130.417 199.999 130.684C200.004 131.218 199.989 131.993 199.909 132.962C199.748 134.901 199.327 137.617 198.287 140.732C196.205 146.964 191.643 154.789 181.733 161.174C171.838 167.55 162.815 170.532 156.264 171.921C152.989 172.616 150.332 172.912 148.492 173.035C147.572 173.096 146.856 173.113 146.37 173.116C146.127 173.117 145.941 173.114 145.815 173.111C145.753 173.109 145.706 173.108 145.674 173.107C145.658 173.106 145.645 173.105 145.637 173.105H100.094V173.116H0.0437839L0.0310886 172.972V172.968C0.0308774 172.966 0.0304521 172.962 0.030112 172.958C0.0293873 172.948 0.0284024 172.934 0.0271824 172.917C0.0247176 172.88 0.021849 172.826 0.0183933 172.756C0.0114773 172.616 0.00326081 172.41 0.000815165 172.143C-0.00407466 171.61 0.0114207 170.835 0.0916355 169.866C0.252185 167.927 0.673105 165.21 1.71371 162.095C3.79563 155.863 8.35743 148.039 18.2674 141.654C28.1622 135.278 37.1843 132.295 43.7352 130.906C47.0106 130.211 49.6686 129.916 51.5086 129.793C52.4285 129.732 53.1444 129.715 53.6307 129.712C53.8735 129.711 54.0591 129.713 54.1844 129.716C54.247 129.718 54.2949 129.719 54.327 129.72C54.3427 129.721 54.3549 129.722 54.3631 129.722H99.9071V129.711H199.957L199.969 129.855Z" fill="#1E8BC3"/>
<path d="M199.969 129.855V129.856C199.969 129.857 199.969 129.858 199.97 129.859C199.97 129.861 199.97 129.865 199.971 129.87C199.971 129.879 199.972 129.893 199.973 129.911C199.976 129.947 199.979 130.001 199.982 130.071C199.989 130.211 199.996 130.417 199.999 130.684C200.004 131.218 199.989 131.993 199.909 132.962C199.748 134.901 199.327 137.617 198.287 140.732C196.205 146.964 191.643 154.789 181.733 161.174C171.838 167.55 162.815 170.532 156.264 171.921C152.989 172.616 150.332 172.912 148.492 173.035C147.572 173.096 146.856 173.113 146.37 173.116C146.127 173.117 145.941 173.114 145.815 173.111C145.753 173.109 145.706 173.108 145.674 173.107C145.658 173.106 145.645 173.105 145.637 173.105H100.094V173.116H0.0437839L0.0310886 172.972V172.968C0.0308774 172.966 0.0304521 172.962 0.030112 172.958C0.0293873 172.948 0.0284024 172.934 0.0271824 172.917C0.0247176 172.88 0.021849 172.826 0.0183933 172.756C0.0114773 172.616 0.00326081 172.41 0.000815165 172.143C-0.00407466 171.61 0.0114207 170.835 0.0916355 169.866C0.252185 167.927 0.673105 165.21 1.71371 162.095C3.79563 155.863 8.35743 148.039 18.2674 141.654C28.1622 135.278 37.1843 132.295 43.7352 130.906C47.0106 130.211 49.6686 129.916 51.5086 129.793C52.4285 129.732 53.1444 129.715 53.6307 129.712C53.8735 129.711 54.0591 129.713 54.1844 129.716C54.247 129.718 54.2949 129.719 54.327 129.72C54.3427 129.721 54.3549 129.722 54.3631 129.722H99.9071V129.711H199.957L199.969 129.855Z" fill="url(#paint3_linear_10389_627)"/>
</mask>
<g mask="url(#mask0_10389_627)">
<rect x="0.151855" y="-0.151367" width="200.063" height="173.026" transform="rotate(0.0668938 0.151855 -0.151367)" fill="#6662D7"/>
<rect x="0.151855" y="-0.151367" width="200.063" height="173.026" transform="rotate(0.0668938 0.151855 -0.151367)" fill="url(#paint4_linear_10389_627)"/>
</g>
</g>
<defs>
<linearGradient id="paint0_linear_10389_627" x1="0" y1="0" x2="107.435" y2="123.76" gradientUnits="userSpaceOnUse">
<stop stop-color="#1E8BC3"/>
<stop offset="1" stop-color="#C829F2"/>
</linearGradient>
<linearGradient id="paint1_linear_10389_627" x1="200" y1="86.6433" x2="92.5655" y2="-37.1162" gradientUnits="userSpaceOnUse">
<stop stop-color="#1E8BC3"/>
<stop offset="1" stop-color="#C829F2"/>
</linearGradient>
<linearGradient id="paint2_linear_10389_627" x1="0" y1="86.4761" x2="107.434" y2="210.236" gradientUnits="userSpaceOnUse">
<stop stop-color="#1E8BC3"/>
<stop offset="1" stop-color="#C829F2"/>
</linearGradient>
<linearGradient id="paint3_linear_10389_627" x1="200" y1="173.116" x2="92.5655" y2="49.3563" gradientUnits="userSpaceOnUse">
<stop stop-color="#1E8BC3"/>
<stop offset="1" stop-color="#C829F2"/>
</linearGradient>
<linearGradient id="paint4_linear_10389_627" x1="0.151855" y1="-0.151367" x2="230.946" y2="66.5631" gradientUnits="userSpaceOnUse">
<stop stop-color="#1E8BC3"/>
<stop offset="1" stop-color="#C829F2"/>
</linearGradient>
<clipPath id="clip0_10389_627">
<rect width="200" height="173" fill="white"/>
</clipPath>
</defs>
</svg>
